<svg id="Layer_1" data-name="Layer 1" xmlns="http://www.w3.org/2000/svg" viewBox="0 0 346.63 180.01"><defs><style>.cls-1{fill:#231f20;}</style></defs><title>Lyndal-logo</title><path d="M41.3,31.69c.76,2.21,1.14,5.67,1.14,10.35V69.93H60.11V42c0-4.68.38-8.14,1.14-10.35a7.1,7.1,0,0,1,4.47-4.56A32.14,32.14,0,0,1,75.5,25.7V21.9q-4.36.2-10.92.38t-13.21.19q-7.41,0-13.87-.19T27.05,21.9v3.8a32.27,32.27,0,0,1,9.79,1.43A7.11,7.11,0,0,1,41.3,31.69Z"/><path d="M124.33,132.1q0-9.69.57-15.58h-4.37q-1.34,13.11-4.08,20.9t-8.93,11.21q-6.18,3.42-18.15,3.42H75.5a34.84,34.84,0,0,1-9.78-1,6.6,6.6,0,0,1-4.47-4.47,34.58,34.58,0,0,1-1.14-10.26V111.34H42.44v24.94a34.58,34.58,0,0,1-1.14,10.26,6.85,6.85,0,0,1-4.46,4.56,38.94,38.94,0,0,1-9.79,1.52v3.8q9.31-.37,20-.47t20-.1h15.1q9.5,0,21.66.1t21.85.47q-.76-7.21-1-14T124.33,132.1Z"/><path d="M247.64,41.66q-2.28-7.41-1.8-10.64a4.83,4.83,0,0,1,3.8-4.18,39.14,39.14,0,0,1,9-1.14V21.9q-4,.2-10.45.38t-13.87.19c-3.16,0-6.46-.06-9.88-.19s-6.27-.25-8.55-.38v3.8a11.07,11.07,0,0,1,5.7,2.47q3,2.28,5.51,9.69l5,15-5.36,17.1h4.34l3.24-10.49,3.54,10.49h18.85Z"/><path d="M181.33,41.66a35.76,35.76,0,0,1-2-9.21,5.28,5.28,0,0,1,2.09-4.85c1.45-1,3.83-1.64,7.12-1.9V21.9q-3.42.2-8.83.38T168,22.47q-5.33,0-10.92-.19t-9.41-.38v3.8a15.57,15.57,0,0,1,6.84,2.47c2.54,1.52,4.62,4.75,6.27,9.69l10.81,32.07h19Z"/><path d="M315.28,22.28c-2.15.13-4.88.19-8.17.19s-6.84-.06-10.64-.19l-11.21-.38v3.8q8,.19,12,2.57t4.28,8.17q.28,5.79-3.14,16.24l-5.48,17.25h4.82l8.64-27.7q2.65-8.73,7-12.25a19.77,19.77,0,0,1,8-4.28V21.9C319.46,22,317.44,22.16,315.28,22.28Z"/><path d="M209.11,126.44l-4.94-15.1H185.58l15.51,46h3l14.23-46h-4.52Z"/><path d="M275,126.23l-4.82-14.89H251.89l15.51,46h3l14.36-46h-5.08Z"/><path class="cls-1" d="M24.08,82.49h3V98.18H36.2v1.07H24.08Z"/><path class="cls-1" d="M43.9,82.49,50.16,91l6.24-8.49h1.65L51,92v7.25H48v-7l-7.22-9.78Z"/><path class="cls-1" d="M66.27,82.49H68L79.81,94.74h.13V82.49h1.32V99.65h-.7L67.74,86h-.11V99.25H66.27Z"/><path class="cls-1" d="M91.72,82.49h6a20.75,20.75,0,0,1,4.79.48,8.46,8.46,0,0,1,3.34,1.54,8.08,8.08,0,0,1,2.32,2.77,7.71,7.71,0,0,1,.77,3.43,8,8,0,0,1-.7,3.33,7.65,7.65,0,0,1-2,2.72,9.62,9.62,0,0,1-3.28,1.83,13.92,13.92,0,0,1-4.47.66H91.72Zm3,15.53H98a8.61,8.61,0,0,0,2.9-.47,6.39,6.39,0,0,0,3.93-3.66,8,8,0,0,0,.58-3.12,7.33,7.33,0,0,0-.55-2.84A6.65,6.65,0,0,0,101,84.25a8.42,8.42,0,0,0-3-.52H94.76Z"/><path class="cls-1" d="M125,82.11l8.5,17.14h-3.08l-2.76-5.59H120l-2.86,5.59h-1.52l8.71-17.14Zm-4.55,10.46h6.66l-3.28-6.63Z"/><path class="cls-1" d="M141.8,82.49h3V98.18h9.08v1.07H141.8Z"/><path class="cls-1" d="M175,82.49l5.37,12.74,4.75-11.5L190,95.29l5.25-12.8h1.5l-7,16.9h-.92l-4.45-10.45-4.29,10.45h-1l-7.18-16.9Z"/><path class="cls-1" d="M208,91.21v8h-3V82.49h3v7.64h9.09V82.49h3V99.25h-3v-8Z"/><path class="cls-1" d="M230.56,82.49h3V99.25h-3Z"/><path class="cls-1" d="M258.42,82.49v1.07h-6.55V99.25h-3V83.56h-6.55V82.49Z"/><path class="cls-1" d="M267.12,82.49h3V99.25h-3Z"/><path class="cls-1" d="M280.6,82.49h1.7l11.84,12.25h.12V82.49h1.33V99.65h-.7L282.07,86H282V99.25H280.6Z"/><path class="cls-1" d="M316.33,83.31a8.22,8.22,0,0,0-3,.54,6.84,6.84,0,0,0-2.38,1.54,7,7,0,0,0-1.56,2.43,8.7,8.7,0,0,0-.56,3.18,7.88,7.88,0,0,0,.62,3.18,7.2,7.2,0,0,0,4.13,4,8.55,8.55,0,0,0,3.05.54,6.91,6.91,0,0,0,2.16-.31,6.14,6.14,0,0,0,1.72-.85V91.65h-3.42v-1h6.46V98a14.93,14.93,0,0,1-1.6.7,13.69,13.69,0,0,1-1.74.51,16.43,16.43,0,0,1-2.05.31c-.74.07-1.59.11-2.53.11a12.09,12.09,0,0,1-4.15-.69,10.5,10.5,0,0,1-3.28-1.86A8.39,8.39,0,0,1,306,94.35a7.62,7.62,0,0,1-.77-3.35,8.12,8.12,0,0,1,.74-3.39,8.87,8.87,0,0,1,2.08-2.84,10.31,10.31,0,0,1,3.21-1.94,11.28,11.28,0,0,1,4.1-.72,9.35,9.35,0,0,1,2.66.36,10.1,10.1,0,0,1,2.22,1,9.09,9.09,0,0,1,1.78,1.38,10.57,10.57,0,0,1,1.34,1.62l-1.31.83a8.45,8.45,0,0,0-2.53-3A5.65,5.65,0,0,0,316.33,83.31Z"/></svg>