<svg id="Layer_1" data-name="Layer 1" xmlns="http://www.w3.org/2000/svg" viewBox="0 0 346.63 180.01"><defs><style>.cls-1{fill:#fff;}</style></defs><title>Lyndal-logo-light</title><path class="cls-1" d="M43,37.69c.76,2.21,1.14,5.67,1.14,10.35V75.93H61.82V48c0-4.68.38-8.14,1.14-10.35a7.1,7.1,0,0,1,4.47-4.56,32.19,32.19,0,0,1,9.78-1.43V27.9q-4.36.2-10.92.38t-13.21.19q-7.41,0-13.87-.19c-4.3-.12-7.79-.25-10.45-.38v3.8a32.27,32.27,0,0,1,9.79,1.43A7.11,7.11,0,0,1,43,37.69Z"/><path class="cls-1" d="M126,138.1q0-9.69.57-15.58h-4.37q-1.32,13.11-4.08,20.9t-8.93,11.21q-6.18,3.42-18.15,3.42H77.21a34.89,34.89,0,0,1-9.78-1A6.6,6.6,0,0,1,63,152.54a34.58,34.58,0,0,1-1.14-10.26V117.34H44.15v24.94A34.58,34.58,0,0,1,43,152.54a6.85,6.85,0,0,1-4.46,4.56,38.94,38.94,0,0,1-9.79,1.52v3.8q9.31-.37,20-.47t20.05-.1h15.1q9.51,0,21.66.1t21.85.47q-.75-7.21-1-14T126,138.1Z"/><path class="cls-1" d="M249.36,47.66q-2.28-7.41-1.81-10.64a4.85,4.85,0,0,1,3.8-4.18,39.31,39.31,0,0,1,9-1.14V27.9c-2.66.13-6.15.26-10.45.38s-8.93.19-13.87.19q-4.76,0-9.88-.19t-8.55-.38v3.8a11.1,11.1,0,0,1,5.7,2.47q3,2.28,5.51,9.69l5,15-5.35,17.1h4.33l3.25-10.49,3.54,10.49h18.84Z"/><path class="cls-1" d="M183.05,47.66a35.44,35.44,0,0,1-2-9.21,5.3,5.3,0,0,1,2.09-4.85c1.46-1,3.83-1.64,7.13-1.9V27.9q-3.42.2-8.84.38t-11.68.19q-5.33,0-10.93-.19t-9.4-.38v3.8a15.65,15.65,0,0,1,6.84,2.47q3.8,2.28,6.27,9.69l10.81,32.07h19Z"/><path class="cls-1" d="M317,28.28q-3.24.2-8.17.19c-3.3,0-6.84-.06-10.64-.19L287,27.9v3.8q8,.19,12,2.57t4.27,8.17q.28,5.79-3.13,16.24L294.6,75.93h4.83l8.64-27.7q2.65-8.73,7-12.25a19.77,19.77,0,0,1,8-4.28V27.9Q320.23,28.1,317,28.28Z"/><path class="cls-1" d="M210.83,132.44l-5-15.1H187.29l15.52,46h3l14.22-46h-4.51Z"/><path class="cls-1" d="M276.69,132.23l-4.81-14.89H253.6l15.52,46h3l14.35-46h-5.08Z"/><path class="cls-1" d="M25.8,88.49h3v15.69h9.08v1.07H25.8Z"/><path class="cls-1" d="M45.61,88.49,51.87,97l6.24-8.49h1.65l-7,9.51v7.25h-3v-7L42.5,88.49Z"/><path class="cls-1" d="M68,88.49h1.69l11.85,12.25h.12V88.49H83v17.16h-.71L69.45,92h-.1v13.24H68Z"/><path class="cls-1" d="M93.43,88.49h6a20.91,20.91,0,0,1,4.8.48,8.52,8.52,0,0,1,3.34,1.54,7.94,7.94,0,0,1,2.31,2.77,7.71,7.71,0,0,1,.77,3.43A8.14,8.14,0,0,1,110,100a7.8,7.8,0,0,1-2,2.72,9.52,9.52,0,0,1-3.28,1.83,13.92,13.92,0,0,1-4.47.66H93.43Zm3,15.53h3.21a8.59,8.59,0,0,0,2.89-.47,6.67,6.67,0,0,0,2.35-1.38,6.56,6.56,0,0,0,1.58-2.28,7.79,7.79,0,0,0,.58-3.12,7.16,7.16,0,0,0-.55-2.84,6.65,6.65,0,0,0-3.86-3.68,8.37,8.37,0,0,0-3-.52H96.47Z"/><path class="cls-1" d="M126.76,88.11l8.5,17.14h-3.09l-2.76-5.59h-7.74l-2.85,5.59h-1.53L126,88.11Zm-4.55,10.46h6.65l-3.28-6.63Z"/><path class="cls-1" d="M143.52,88.49h3v15.69h9.08v1.07H143.52Z"/><path class="cls-1" d="M176.7,88.49l5.37,12.74,4.75-11.5,4.92,11.56L197,88.49h1.49l-7,16.9h-.91l-4.46-10.45-4.29,10.45h-1l-7.17-16.9Z"/><path class="cls-1" d="M209.72,97.21v8h-3V88.49h3v7.64h9.08V88.49h3v16.76h-3v-8Z"/><path class="cls-1" d="M232.28,88.49h3v16.76h-3Z"/><path class="cls-1" d="M260.13,88.49v1.07h-6.54v15.69h-3V89.56H244V88.49Z"/><path class="cls-1" d="M268.84,88.49h3v16.76h-3Z"/><path class="cls-1" d="M282.32,88.49H284l11.84,12.25H296V88.49h1.32v17.16h-.7L283.78,92h-.11v13.24h-1.35Z"/><path class="cls-1" d="M318.05,89.31a8.23,8.23,0,0,0-3,.54,6.84,6.84,0,0,0-2.38,1.54,7.08,7.08,0,0,0-1.55,2.43,8.49,8.49,0,0,0-.56,3.18,7.88,7.88,0,0,0,.61,3.18,7.29,7.29,0,0,0,1.66,2.42,7.13,7.13,0,0,0,2.48,1.55,8.47,8.47,0,0,0,3,.54,6.89,6.89,0,0,0,2.15-.31,6,6,0,0,0,1.72-.85V97.65H318.8v-1h6.45V104a14.93,14.93,0,0,1-1.6.7,13.69,13.69,0,0,1-1.74.51,16.15,16.15,0,0,1-2.05.31c-.74.07-1.58.11-2.53.11a12,12,0,0,1-4.14-.69,10.39,10.39,0,0,1-3.28-1.86,8.42,8.42,0,0,1-2.16-2.75A7.62,7.62,0,0,1,307,97a8.12,8.12,0,0,1,.74-3.39,8.9,8.9,0,0,1,2.09-2.84,10.15,10.15,0,0,1,3.2-1.94,11.3,11.3,0,0,1,4.11-.72,9.33,9.33,0,0,1,2.65.36,9.71,9.71,0,0,1,2.22,1,9.09,9.09,0,0,1,1.78,1.38,10.64,10.64,0,0,1,1.35,1.62l-1.32.83a8.35,8.35,0,0,0-2.53-3A5.65,5.65,0,0,0,318.05,89.31Z"/></svg>